<?xml version="1.0" encoding="utf-8" standalone="no"?>
<!DOCTYPE svg PUBLIC "-//W3C//DTD SVG 1.1//EN"
  "http://www.w3.org/Graphics/SVG/1.1/DTD/svg11.dtd">
<svg xmlns:xlink="http://www.w3.org/1999/xlink" width="993.6pt" height="345.6pt" viewBox="0 0 993.6 345.6" xmlns="http://www.w3.org/2000/svg" version="1.1">
 <metadata>
  <rdf:RDF xmlns:dc="http://purl.org/dc/elements/1.1/" xmlns:cc="http://creativecommons.org/ns#" xmlns:rdf="http://www.w3.org/1999/02/22-rdf-syntax-ns#">
   <cc:Work>
    <dc:type rdf:resource="http://purl.org/dc/dcmitype/StillImage"/>
    <dc:date>2026-03-17T22:36:10.506817</dc:date>
    <dc:format>image/svg+xml</dc:format>
    <dc:creator>
     <cc:Agent>
      <dc:title>Matplotlib v3.10.8, https://matplotlib.org/</dc:title>
     </cc:Agent>
    </dc:creator>
   </cc:Work>
  </rdf:RDF>
 </metadata>
 <defs>
  <style type="text/css">*{stroke-linejoin: round; stroke-linecap: butt}</style>
 </defs>
 <g id="figure_1">
  <g id="patch_1">
   <path d="M 0 345.6 
L 993.6 345.6 
L 993.6 0 
L 0 0 
z
" style="fill: #ffffff"/>
  </g>
  <g id="axes_1">
   <g id="patch_2">
    <path d="M 42.765865 315.24351 
L 990.59976 315.24351 
L 990.59976 18.118365 
L 42.765865 18.118365 
z
" style="fill: #ffffff"/>
   </g>
   <g id="matplotlib.axis_1">
    <g id="xtick_1">
     <g id="line2d_1"/>
     <g id="text_1">
      <!-- literal prefix -->
      <g transform="translate(106.320685 326.841947) scale(0.1 -0.1)">
       <defs>
        <path id="DejaVuSans-6c" d="M 603 4863 
L 1178 4863 
L 1178 0 
L 603 0 
L 603 4863 
z
" transform="scale(0.015625)"/>
        <path id="DejaVuSans-69" d="M 603 3500 
L 1178 3500 
L 1178 0 
L 603 0 
L 603 3500 
z
M 603 4863 
L 1178 4863 
L 1178 4134 
L 603 4134 
L 603 4863 
z
" transform="scale(0.015625)"/>
        <path id="DejaVuSans-74" d="M 1172 4494 
L 1172 3500 
L 2356 3500 
L 2356 3053 
L 1172 3053 
L 1172 1153 
Q 1172 725 1289 603 
Q 1406 481 1766 481 
L 2356 481 
L 2356 0 
L 1766 0 
Q 1100 0 847 248 
Q 594 497 594 1153 
L 594 3053 
L 172 3053 
L 172 3500 
L 594 3500 
L 594 4494 
L 1172 4494 
z
" transform="scale(0.015625)"/>
        <path id="DejaVuSans-65" d="M 3597 1894 
L 3597 1613 
L 953 1613 
Q 991 1019 1311 708 
Q 1631 397 2203 397 
Q 2534 397 2845 478 
Q 3156 559 3463 722 
L 3463 178 
Q 3153 47 2828 -22 
Q 2503 -91 2169 -91 
Q 1331 -91 842 396 
Q 353 884 353 1716 
Q 353 2575 817 3079 
Q 1281 3584 2069 3584 
Q 2775 3584 3186 3129 
Q 3597 2675 3597 1894 
z
M 3022 2063 
Q 3016 2534 2758 2815 
Q 2500 3097 2075 3097 
Q 1594 3097 1305 2825 
Q 1016 2553 972 2059 
L 3022 2063 
z
" transform="scale(0.015625)"/>
        <path id="DejaVuSans-72" d="M 2631 2963 
Q 2534 3019 2420 3045 
Q 2306 3072 2169 3072 
Q 1681 3072 1420 2755 
Q 1159 2438 1159 1844 
L 1159 0 
L 581 0 
L 581 3500 
L 1159 3500 
L 1159 2956 
Q 1341 3275 1631 3429 
Q 1922 3584 2338 3584 
Q 2397 3584 2469 3576 
Q 2541 3569 2628 3553 
L 2631 2963 
z
" transform="scale(0.015625)"/>
        <path id="DejaVuSans-61" d="M 2194 1759 
Q 1497 1759 1228 1600 
Q 959 1441 959 1056 
Q 959 750 1161 570 
Q 1363 391 1709 391 
Q 2188 391 2477 730 
Q 2766 1069 2766 1631 
L 2766 1759 
L 2194 1759 
z
M 3341 1997 
L 3341 0 
L 2766 0 
L 2766 531 
Q 2569 213 2275 61 
Q 1981 -91 1556 -91 
Q 1019 -91 701 211 
Q 384 513 384 1019 
Q 384 1609 779 1909 
Q 1175 2209 1959 2209 
L 2766 2209 
L 2766 2266 
Q 2766 2663 2505 2880 
Q 2244 3097 1772 3097 
Q 1472 3097 1187 3025 
Q 903 2953 641 2809 
L 641 3341 
Q 956 3463 1253 3523 
Q 1550 3584 1831 3584 
Q 2591 3584 2966 3190 
Q 3341 2797 3341 1997 
z
" transform="scale(0.015625)"/>
        <path id="DejaVuSans-20" transform="scale(0.015625)"/>
        <path id="DejaVuSans-70" d="M 1159 525 
L 1159 -1331 
L 581 -1331 
L 581 3500 
L 1159 3500 
L 1159 2969 
Q 1341 3281 1617 3432 
Q 1894 3584 2278 3584 
Q 2916 3584 3314 3078 
Q 3713 2572 3713 1747 
Q 3713 922 3314 415 
Q 2916 -91 2278 -91 
Q 1894 -91 1617 61 
Q 1341 213 1159 525 
z
M 3116 1747 
Q 3116 2381 2855 2742 
Q 2594 3103 2138 3103 
Q 1681 3103 1420 2742 
Q 1159 2381 1159 1747 
Q 1159 1113 1420 752 
Q 1681 391 2138 391 
Q 2594 391 2855 752 
Q 3116 1113 3116 1747 
z
" transform="scale(0.015625)"/>
        <path id="DejaVuSans-66" d="M 2375 4863 
L 2375 4384 
L 1825 4384 
Q 1516 4384 1395 4259 
Q 1275 4134 1275 3809 
L 1275 3500 
L 2222 3500 
L 2222 3053 
L 1275 3053 
L 1275 0 
L 697 0 
L 697 3053 
L 147 3053 
L 147 3500 
L 697 3500 
L 697 3744 
Q 697 4328 969 4595 
Q 1241 4863 1831 4863 
L 2375 4863 
z
" transform="scale(0.015625)"/>
        <path id="DejaVuSans-78" d="M 3513 3500 
L 2247 1797 
L 3578 0 
L 2900 0 
L 1881 1375 
L 863 0 
L 184 0 
L 1544 1831 
L 300 3500 
L 978 3500 
L 1906 2253 
L 2834 3500 
L 3513 3500 
z
" transform="scale(0.015625)"/>
       </defs>
       <use xlink:href="#DejaVuSans-6c"/>
       <use xlink:href="#DejaVuSans-69" transform="translate(27.783203 0)"/>
       <use xlink:href="#DejaVuSans-74" transform="translate(55.566406 0)"/>
       <use xlink:href="#DejaVuSans-65" transform="translate(94.775391 0)"/>
       <use xlink:href="#DejaVuSans-72" transform="translate(156.298828 0)"/>
       <use xlink:href="#DejaVuSans-61" transform="translate(197.412109 0)"/>
       <use xlink:href="#DejaVuSans-6c" transform="translate(258.691406 0)"/>
       <use xlink:href="#DejaVuSans-20" transform="translate(286.474609 0)"/>
       <use xlink:href="#DejaVuSans-70" transform="translate(318.261719 0)"/>
       <use xlink:href="#DejaVuSans-72" transform="translate(381.738281 0)"/>
       <use xlink:href="#DejaVuSans-65" transform="translate(420.601562 0)"/>
       <use xlink:href="#DejaVuSans-66" transform="translate(482.125 0)"/>
       <use xlink:href="#DejaVuSans-69" transform="translate(517.330078 0)"/>
       <use xlink:href="#DejaVuSans-78" transform="translate(545.113281 0)"/>
      </g>
     </g>
    </g>
    <g id="xtick_2">
     <g id="line2d_2"/>
     <g id="text_2">
      <!-- anchored prefix -->
      <g transform="translate(223.955977 326.841947) scale(0.1 -0.1)">
       <defs>
        <path id="DejaVuSans-6e" d="M 3513 2113 
L 3513 0 
L 2938 0 
L 2938 2094 
Q 2938 2591 2744 2837 
Q 2550 3084 2163 3084 
Q 1697 3084 1428 2787 
Q 1159 2491 1159 1978 
L 1159 0 
L 581 0 
L 581 3500 
L 1159 3500 
L 1159 2956 
Q 1366 3272 1645 3428 
Q 1925 3584 2291 3584 
Q 2894 3584 3203 3211 
Q 3513 2838 3513 2113 
z
" transform="scale(0.015625)"/>
        <path id="DejaVuSans-63" d="M 3122 3366 
L 3122 2828 
Q 2878 2963 2633 3030 
Q 2388 3097 2138 3097 
Q 1578 3097 1268 2742 
Q 959 2388 959 1747 
Q 959 1106 1268 751 
Q 1578 397 2138 397 
Q 2388 397 2633 464 
Q 2878 531 3122 666 
L 3122 134 
Q 2881 22 2623 -34 
Q 2366 -91 2075 -91 
Q 1284 -91 818 406 
Q 353 903 353 1747 
Q 353 2603 823 3093 
Q 1294 3584 2113 3584 
Q 2378 3584 2631 3529 
Q 2884 3475 3122 3366 
z
" transform="scale(0.015625)"/>
        <path id="DejaVuSans-68" d="M 3513 2113 
L 3513 0 
L 2938 0 
L 2938 2094 
Q 2938 2591 2744 2837 
Q 2550 3084 2163 3084 
Q 1697 3084 1428 2787 
Q 1159 2491 1159 1978 
L 1159 0 
L 581 0 
L 581 4863 
L 1159 4863 
L 1159 2956 
Q 1366 3272 1645 3428 
Q 1925 3584 2291 3584 
Q 2894 3584 3203 3211 
Q 3513 2838 3513 2113 
z
" transform="scale(0.015625)"/>
        <path id="DejaVuSans-6f" d="M 1959 3097 
Q 1497 3097 1228 2736 
Q 959 2375 959 1747 
Q 959 1119 1226 758 
Q 1494 397 1959 397 
Q 2419 397 2687 759 
Q 2956 1122 2956 1747 
Q 2956 2369 2687 2733 
Q 2419 3097 1959 3097 
z
M 1959 3584 
Q 2709 3584 3137 3096 
Q 3566 2609 3566 1747 
Q 3566 888 3137 398 
Q 2709 -91 1959 -91 
Q 1206 -91 779 398 
Q 353 888 353 1747 
Q 353 2609 779 3096 
Q 1206 3584 1959 3584 
z
" transform="scale(0.015625)"/>
        <path id="DejaVuSans-64" d="M 2906 2969 
L 2906 4863 
L 3481 4863 
L 3481 0 
L 2906 0 
L 2906 525 
Q 2725 213 2448 61 
Q 2172 -91 1784 -91 
Q 1150 -91 751 415 
Q 353 922 353 1747 
Q 353 2572 751 3078 
Q 1150 3584 1784 3584 
Q 2172 3584 2448 3432 
Q 2725 3281 2906 2969 
z
M 947 1747 
Q 947 1113 1208 752 
Q 1469 391 1925 391 
Q 2381 391 2643 752 
Q 2906 1113 2906 1747 
Q 2906 2381 2643 2742 
Q 2381 3103 1925 3103 
Q 1469 3103 1208 2742 
Q 947 2381 947 1747 
z
" transform="scale(0.015625)"/>
       </defs>
       <use xlink:href="#DejaVuSans-61"/>
       <use xlink:href="#DejaVuSans-6e" transform="translate(61.279297 0)"/>
       <use xlink:href="#DejaVuSans-63" transform="translate(124.658203 0)"/>
       <use xlink:href="#DejaVuSans-68" transform="translate(179.638672 0)"/>
       <use xlink:href="#DejaVuSans-6f" transform="translate(243.017578 0)"/>
       <use xlink:href="#DejaVuSans-72" transform="translate(304.199219 0)"/>
       <use xlink:href="#DejaVuSans-65" transform="translate(343.0625 0)"/>
       <use xlink:href="#DejaVuSans-64" transform="translate(404.585938 0)"/>
       <use xlink:href="#DejaVuSans-20" transform="translate(468.0625 0)"/>
       <use xlink:href="#DejaVuSans-70" transform="translate(499.849609 0)"/>
       <use xlink:href="#DejaVuSans-72" transform="translate(563.326172 0)"/>
       <use xlink:href="#DejaVuSans-65" transform="translate(602.189453 0)"/>
       <use xlink:href="#DejaVuSans-66" transform="translate(663.712891 0)"/>
       <use xlink:href="#DejaVuSans-69" transform="translate(698.917969 0)"/>
       <use xlink:href="#DejaVuSans-78" transform="translate(726.701172 0)"/>
      </g>
     </g>
    </g>
    <g id="xtick_3">
     <g id="line2d_3"/>
     <g id="text_3">
      <!-- dense alternation -->
      <g transform="translate(346.009239 326.841947) scale(0.1 -0.1)">
       <defs>
        <path id="DejaVuSans-73" d="M 2834 3397 
L 2834 2853 
Q 2591 2978 2328 3040 
Q 2066 3103 1784 3103 
Q 1356 3103 1142 2972 
Q 928 2841 928 2578 
Q 928 2378 1081 2264 
Q 1234 2150 1697 2047 
L 1894 2003 
Q 2506 1872 2764 1633 
Q 3022 1394 3022 966 
Q 3022 478 2636 193 
Q 2250 -91 1575 -91 
Q 1294 -91 989 -36 
Q 684 19 347 128 
L 347 722 
Q 666 556 975 473 
Q 1284 391 1588 391 
Q 1994 391 2212 530 
Q 2431 669 2431 922 
Q 2431 1156 2273 1281 
Q 2116 1406 1581 1522 
L 1381 1569 
Q 847 1681 609 1914 
Q 372 2147 372 2553 
Q 372 3047 722 3315 
Q 1072 3584 1716 3584 
Q 2034 3584 2315 3537 
Q 2597 3491 2834 3397 
z
" transform="scale(0.015625)"/>
       </defs>
       <use xlink:href="#DejaVuSans-64"/>
       <use xlink:href="#DejaVuSans-65" transform="translate(63.476562 0)"/>
       <use xlink:href="#DejaVuSans-6e" transform="translate(125 0)"/>
       <use xlink:href="#DejaVuSans-73" transform="translate(188.378906 0)"/>
       <use xlink:href="#DejaVuSans-65" transform="translate(240.478516 0)"/>
       <use xlink:href="#DejaVuSans-20" transform="translate(302.001953 0)"/>
       <use xlink:href="#DejaVuSans-61" transform="translate(333.789062 0)"/>
       <use xlink:href="#DejaVuSans-6c" transform="translate(395.068359 0)"/>
       <use xlink:href="#DejaVuSans-74" transform="translate(422.851562 0)"/>
       <use xlink:href="#DejaVuSans-65" transform="translate(462.060547 0)"/>
       <use xlink:href="#DejaVuSans-72" transform="translate(523.583984 0)"/>
       <use xlink:href="#DejaVuSans-6e" transform="translate(562.947266 0)"/>
       <use xlink:href="#DejaVuSans-61" transform="translate(626.326172 0)"/>
       <use xlink:href="#DejaVuSans-74" transform="translate(687.605469 0)"/>
       <use xlink:href="#DejaVuSans-69" transform="translate(726.814453 0)"/>
       <use xlink:href="#DejaVuSans-6f" transform="translate(754.597656 0)"/>
       <use xlink:href="#DejaVuSans-6e" transform="translate(815.779297 0)"/>
      </g>
     </g>
    </g>
    <g id="xtick_4">
     <g id="line2d_4"/>
     <g id="text_4">
      <!-- literal phrase -->
      <g transform="translate(483.626562 326.841947) scale(0.1 -0.1)">
       <use xlink:href="#DejaVuSans-6c"/>
       <use xlink:href="#DejaVuSans-69" transform="translate(27.783203 0)"/>
       <use xlink:href="#DejaVuSans-74" transform="translate(55.566406 0)"/>
       <use xlink:href="#DejaVuSans-65" transform="translate(94.775391 0)"/>
       <use xlink:href="#DejaVuSans-72" transform="translate(156.298828 0)"/>
       <use xlink:href="#DejaVuSans-61" transform="translate(197.412109 0)"/>
       <use xlink:href="#DejaVuSans-6c" transform="translate(258.691406 0)"/>
       <use xlink:href="#DejaVuSans-20" transform="translate(286.474609 0)"/>
       <use xlink:href="#DejaVuSans-70" transform="translate(318.261719 0)"/>
       <use xlink:href="#DejaVuSans-68" transform="translate(381.738281 0)"/>
       <use xlink:href="#DejaVuSans-72" transform="translate(445.117188 0)"/>
       <use xlink:href="#DejaVuSans-61" transform="translate(486.230469 0)"/>
       <use xlink:href="#DejaVuSans-73" transform="translate(547.509766 0)"/>
       <use xlink:href="#DejaVuSans-65" transform="translate(599.609375 0)"/>
      </g>
     </g>
    </g>
    <g id="xtick_5">
     <g id="line2d_5"/>
     <g id="text_5">
      <!-- anchored alternation -->
      <g transform="translate(591.137636 326.841947) scale(0.1 -0.1)">
       <use xlink:href="#DejaVuSans-61"/>
       <use xlink:href="#DejaVuSans-6e" transform="translate(61.279297 0)"/>
       <use xlink:href="#DejaVuSans-63" transform="translate(124.658203 0)"/>
       <use xlink:href="#DejaVuSans-68" transform="translate(179.638672 0)"/>
       <use xlink:href="#DejaVuSans-6f" transform="translate(243.017578 0)"/>
       <use xlink:href="#DejaVuSans-72" transform="translate(304.199219 0)"/>
       <use xlink:href="#DejaVuSans-65" transform="translate(343.0625 0)"/>
       <use xlink:href="#DejaVuSans-64" transform="translate(404.585938 0)"/>
       <use xlink:href="#DejaVuSans-20" transform="translate(468.0625 0)"/>
       <use xlink:href="#DejaVuSans-61" transform="translate(499.849609 0)"/>
       <use xlink:href="#DejaVuSans-6c" transform="translate(561.128906 0)"/>
       <use xlink:href="#DejaVuSans-74" transform="translate(588.912109 0)"/>
       <use xlink:href="#DejaVuSans-65" transform="translate(628.121094 0)"/>
       <use xlink:href="#DejaVuSans-72" transform="translate(689.644531 0)"/>
       <use xlink:href="#DejaVuSans-6e" transform="translate(729.007812 0)"/>
       <use xlink:href="#DejaVuSans-61" transform="translate(792.386719 0)"/>
       <use xlink:href="#DejaVuSans-74" transform="translate(853.666016 0)"/>
       <use xlink:href="#DejaVuSans-69" transform="translate(892.875 0)"/>
       <use xlink:href="#DejaVuSans-6f" transform="translate(920.658203 0)"/>
       <use xlink:href="#DejaVuSans-6e" transform="translate(981.839844 0)"/>
      </g>
     </g>
    </g>
    <g id="xtick_6">
     <g id="line2d_6"/>
     <g id="text_6">
      <!-- broad wildcard -->
      <g transform="translate(733.113554 326.841947) scale(0.1 -0.1)">
       <defs>
        <path id="DejaVuSans-62" d="M 3116 1747 
Q 3116 2381 2855 2742 
Q 2594 3103 2138 3103 
Q 1681 3103 1420 2742 
Q 1159 2381 1159 1747 
Q 1159 1113 1420 752 
Q 1681 391 2138 391 
Q 2594 391 2855 752 
Q 3116 1113 3116 1747 
z
M 1159 2969 
Q 1341 3281 1617 3432 
Q 1894 3584 2278 3584 
Q 2916 3584 3314 3078 
Q 3713 2572 3713 1747 
Q 3713 922 3314 415 
Q 2916 -91 2278 -91 
Q 1894 -91 1617 61 
Q 1341 213 1159 525 
L 1159 0 
L 581 0 
L 581 4863 
L 1159 4863 
L 1159 2969 
z
" transform="scale(0.015625)"/>
        <path id="DejaVuSans-77" d="M 269 3500 
L 844 3500 
L 1563 769 
L 2278 3500 
L 2956 3500 
L 3675 769 
L 4391 3500 
L 4966 3500 
L 4050 0 
L 3372 0 
L 2619 2869 
L 1863 0 
L 1184 0 
L 269 3500 
z
" transform="scale(0.015625)"/>
       </defs>
       <use xlink:href="#DejaVuSans-62"/>
       <use xlink:href="#DejaVuSans-72" transform="translate(63.476562 0)"/>
       <use xlink:href="#DejaVuSans-6f" transform="translate(102.339844 0)"/>
       <use xlink:href="#DejaVuSans-61" transform="translate(163.521484 0)"/>
       <use xlink:href="#DejaVuSans-64" transform="translate(224.800781 0)"/>
       <use xlink:href="#DejaVuSans-20" transform="translate(288.277344 0)"/>
       <use xlink:href="#DejaVuSans-77" transform="translate(320.064453 0)"/>
       <use xlink:href="#DejaVuSans-69" transform="translate(401.851562 0)"/>
       <use xlink:href="#DejaVuSans-6c" transform="translate(429.634766 0)"/>
       <use xlink:href="#DejaVuSans-64" transform="translate(457.417969 0)"/>
       <use xlink:href="#DejaVuSans-63" transform="translate(520.894531 0)"/>
       <use xlink:href="#DejaVuSans-61" transform="translate(575.875 0)"/>
       <use xlink:href="#DejaVuSans-72" transform="translate(637.154297 0)"/>
       <use xlink:href="#DejaVuSans-64" transform="translate(676.517578 0)"/>
      </g>
     </g>
    </g>
    <g id="xtick_7">
     <g id="line2d_7"/>
     <g id="text_7">
      <!-- quantified backtracking -->
      <g transform="translate(837.576972 326.841947) scale(0.1 -0.1)">
       <defs>
        <path id="DejaVuSans-71" d="M 947 1747 
Q 947 1113 1208 752 
Q 1469 391 1925 391 
Q 2381 391 2643 752 
Q 2906 1113 2906 1747 
Q 2906 2381 2643 2742 
Q 2381 3103 1925 3103 
Q 1469 3103 1208 2742 
Q 947 2381 947 1747 
z
M 2906 525 
Q 2725 213 2448 61 
Q 2172 -91 1784 -91 
Q 1150 -91 751 415 
Q 353 922 353 1747 
Q 353 2572 751 3078 
Q 1150 3584 1784 3584 
Q 2172 3584 2448 3432 
Q 2725 3281 2906 2969 
L 2906 3500 
L 3481 3500 
L 3481 -1331 
L 2906 -1331 
L 2906 525 
z
" transform="scale(0.015625)"/>
        <path id="DejaVuSans-75" d="M 544 1381 
L 544 3500 
L 1119 3500 
L 1119 1403 
Q 1119 906 1312 657 
Q 1506 409 1894 409 
Q 2359 409 2629 706 
Q 2900 1003 2900 1516 
L 2900 3500 
L 3475 3500 
L 3475 0 
L 2900 0 
L 2900 538 
Q 2691 219 2414 64 
Q 2138 -91 1772 -91 
Q 1169 -91 856 284 
Q 544 659 544 1381 
z
M 1991 3584 
L 1991 3584 
z
" transform="scale(0.015625)"/>
        <path id="DejaVuSans-6b" d="M 581 4863 
L 1159 4863 
L 1159 1991 
L 2875 3500 
L 3609 3500 
L 1753 1863 
L 3688 0 
L 2938 0 
L 1159 1709 
L 1159 0 
L 581 0 
L 581 4863 
z
" transform="scale(0.015625)"/>
        <path id="DejaVuSans-67" d="M 2906 1791 
Q 2906 2416 2648 2759 
Q 2391 3103 1925 3103 
Q 1463 3103 1205 2759 
Q 947 2416 947 1791 
Q 947 1169 1205 825 
Q 1463 481 1925 481 
Q 2391 481 2648 825 
Q 2906 1169 2906 1791 
z
M 3481 434 
Q 3481 -459 3084 -895 
Q 2688 -1331 1869 -1331 
Q 1566 -1331 1297 -1286 
Q 1028 -1241 775 -1147 
L 775 -588 
Q 1028 -725 1275 -790 
Q 1522 -856 1778 -856 
Q 2344 -856 2625 -561 
Q 2906 -266 2906 331 
L 2906 616 
Q 2728 306 2450 153 
Q 2172 0 1784 0 
Q 1141 0 747 490 
Q 353 981 353 1791 
Q 353 2603 747 3093 
Q 1141 3584 1784 3584 
Q 2172 3584 2450 3431 
Q 2728 3278 2906 2969 
L 2906 3500 
L 3481 3500 
L 3481 434 
z
" transform="scale(0.015625)"/>
       </defs>
       <use xlink:href="#DejaVuSans-71"/>
       <use xlink:href="#DejaVuSans-75" transform="translate(63.476562 0)"/>
       <use xlink:href="#DejaVuSans-61" transform="translate(126.855469 0)"/>
       <use xlink:href="#DejaVuSans-6e" transform="translate(188.134766 0)"/>
       <use xlink:href="#DejaVuSans-74" transform="translate(251.513672 0)"/>
       <use xlink:href="#DejaVuSans-69" transform="translate(290.722656 0)"/>
       <use xlink:href="#DejaVuSans-66" transform="translate(318.505859 0)"/>
       <use xlink:href="#DejaVuSans-69" transform="translate(353.710938 0)"/>
       <use xlink:href="#DejaVuSans-65" transform="translate(381.494141 0)"/>
       <use xlink:href="#DejaVuSans-64" transform="translate(443.017578 0)"/>
       <use xlink:href="#DejaVuSans-20" transform="translate(506.494141 0)"/>
       <use xlink:href="#DejaVuSans-62" transform="translate(538.28125 0)"/>
       <use xlink:href="#DejaVuSans-61" transform="translate(601.757812 0)"/>
       <use xlink:href="#DejaVuSans-63" transform="translate(663.037109 0)"/>
       <use xlink:href="#DejaVuSans-6b" transform="translate(718.017578 0)"/>
       <use xlink:href="#DejaVuSans-74" transform="translate(775.927734 0)"/>
       <use xlink:href="#DejaVuSans-72" transform="translate(815.136719 0)"/>
       <use xlink:href="#DejaVuSans-61" transform="translate(856.25 0)"/>
       <use xlink:href="#DejaVuSans-63" transform="translate(917.529297 0)"/>
       <use xlink:href="#DejaVuSans-6b" transform="translate(972.509766 0)"/>
       <use xlink:href="#DejaVuSans-69" transform="translate(1030.419922 0)"/>
       <use xlink:href="#DejaVuSans-6e" transform="translate(1058.203125 0)"/>
       <use xlink:href="#DejaVuSans-67" transform="translate(1121.582031 0)"/>
      </g>
     </g>
    </g>
    <g id="text_8">
     <!-- Benchmark case -->
     <g transform="translate(475.120312 340.520072) scale(0.1 -0.1)">
      <defs>
       <path id="DejaVuSans-42" d="M 1259 2228 
L 1259 519 
L 2272 519 
Q 2781 519 3026 730 
Q 3272 941 3272 1375 
Q 3272 1813 3026 2020 
Q 2781 2228 2272 2228 
L 1259 2228 
z
M 1259 4147 
L 1259 2741 
L 2194 2741 
Q 2656 2741 2882 2914 
Q 3109 3088 3109 3444 
Q 3109 3797 2882 3972 
Q 2656 4147 2194 4147 
L 1259 4147 
z
M 628 4666 
L 2241 4666 
Q 2963 4666 3353 4366 
Q 3744 4066 3744 3513 
Q 3744 3084 3544 2831 
Q 3344 2578 2956 2516 
Q 3422 2416 3680 2098 
Q 3938 1781 3938 1306 
Q 3938 681 3513 340 
Q 3088 0 2303 0 
L 628 0 
L 628 4666 
z
" transform="scale(0.015625)"/>
       <path id="DejaVuSans-6d" d="M 3328 2828 
Q 3544 3216 3844 3400 
Q 4144 3584 4550 3584 
Q 5097 3584 5394 3201 
Q 5691 2819 5691 2113 
L 5691 0 
L 5113 0 
L 5113 2094 
Q 5113 2597 4934 2840 
Q 4756 3084 4391 3084 
Q 3944 3084 3684 2787 
Q 3425 2491 3425 1978 
L 3425 0 
L 2847 0 
L 2847 2094 
Q 2847 2600 2669 2842 
Q 2491 3084 2119 3084 
Q 1678 3084 1418 2786 
Q 1159 2488 1159 1978 
L 1159 0 
L 581 0 
L 581 3500 
L 1159 3500 
L 1159 2956 
Q 1356 3278 1631 3431 
Q 1906 3584 2284 3584 
Q 2666 3584 2933 3390 
Q 3200 3197 3328 2828 
z
" transform="scale(0.015625)"/>
      </defs>
      <use xlink:href="#DejaVuSans-42"/>
      <use xlink:href="#DejaVuSans-65" transform="translate(68.603516 0)"/>
      <use xlink:href="#DejaVuSans-6e" transform="translate(130.126953 0)"/>
      <use xlink:href="#DejaVuSans-63" transform="translate(193.505859 0)"/>
      <use xlink:href="#DejaVuSans-68" transform="translate(248.486328 0)"/>
      <use xlink:href="#DejaVuSans-6d" transform="translate(311.865234 0)"/>
      <use xlink:href="#DejaVuSans-61" transform="translate(409.277344 0)"/>
      <use xlink:href="#DejaVuSans-72" transform="translate(470.556641 0)"/>
      <use xlink:href="#DejaVuSans-6b" transform="translate(511.669922 0)"/>
      <use xlink:href="#DejaVuSans-20" transform="translate(569.580078 0)"/>
      <use xlink:href="#DejaVuSans-63" transform="translate(601.367188 0)"/>
      <use xlink:href="#DejaVuSans-61" transform="translate(656.347656 0)"/>
      <use xlink:href="#DejaVuSans-73" transform="translate(717.626953 0)"/>
      <use xlink:href="#DejaVuSans-65" transform="translate(769.726562 0)"/>
     </g>
    </g>
   </g>
   <g id="matplotlib.axis_2">
    <g id="ytick_1">
     <g id="line2d_8">
      <defs>
       <path id="m1024b6f7f4" d="M 0 0 
L -3.5 0 
" style="stroke: #000000; stroke-width: 0.8"/>
      </defs>
      <g>
       <use xlink:href="#m1024b6f7f4" x="42.765865" y="315.24351" style="stroke: #000000; stroke-width: 0.8"/>
      </g>
     </g>
     <g id="text_9">
      <!-- 0 -->
      <g transform="translate(29.403365 319.042729) scale(0.1 -0.1)">
       <defs>
        <path id="DejaVuSans-30" d="M 2034 4250 
Q 1547 4250 1301 3770 
Q 1056 3291 1056 2328 
Q 1056 1369 1301 889 
Q 1547 409 2034 409 
Q 2525 409 2770 889 
Q 3016 1369 3016 2328 
Q 3016 3291 2770 3770 
Q 2525 4250 2034 4250 
z
M 2034 4750 
Q 2819 4750 3233 4129 
Q 3647 3509 3647 2328 
Q 3647 1150 3233 529 
Q 2819 -91 2034 -91 
Q 1250 -91 836 529 
Q 422 1150 422 2328 
Q 422 3509 836 4129 
Q 1250 4750 2034 4750 
z
" transform="scale(0.015625)"/>
       </defs>
       <use xlink:href="#DejaVuSans-30"/>
      </g>
     </g>
    </g>
    <g id="ytick_2">
     <g id="line2d_9">
      <g>
       <use xlink:href="#m1024b6f7f4" x="42.765865" y="278.305326" style="stroke: #000000; stroke-width: 0.8"/>
      </g>
     </g>
     <g id="text_10">
      <!-- 20 -->
      <g transform="translate(23.040865 282.104545) scale(0.1 -0.1)">
       <defs>
        <path id="DejaVuSans-32" d="M 1228 531 
L 3431 531 
L 3431 0 
L 469 0 
L 469 531 
Q 828 903 1448 1529 
Q 2069 2156 2228 2338 
Q 2531 2678 2651 2914 
Q 2772 3150 2772 3378 
Q 2772 3750 2511 3984 
Q 2250 4219 1831 4219 
Q 1534 4219 1204 4116 
Q 875 4013 500 3803 
L 500 4441 
Q 881 4594 1212 4672 
Q 1544 4750 1819 4750 
Q 2544 4750 2975 4387 
Q 3406 4025 3406 3419 
Q 3406 3131 3298 2873 
Q 3191 2616 2906 2266 
Q 2828 2175 2409 1742 
Q 1991 1309 1228 531 
z
" transform="scale(0.015625)"/>
       </defs>
       <use xlink:href="#DejaVuSans-32"/>
       <use xlink:href="#DejaVuSans-30" transform="translate(63.623047 0)"/>
      </g>
     </g>
    </g>
    <g id="ytick_3">
     <g id="line2d_10">
      <g>
       <use xlink:href="#m1024b6f7f4" x="42.765865" y="241.367142" style="stroke: #000000; stroke-width: 0.8"/>
      </g>
     </g>
     <g id="text_11">
      <!-- 40 -->
      <g transform="translate(23.040865 245.16636) scale(0.1 -0.1)">
       <defs>
        <path id="DejaVuSans-34" d="M 2419 4116 
L 825 1625 
L 2419 1625 
L 2419 4116 
z
M 2253 4666 
L 3047 4666 
L 3047 1625 
L 3713 1625 
L 3713 1100 
L 3047 1100 
L 3047 0 
L 2419 0 
L 2419 1100 
L 313 1100 
L 313 1709 
L 2253 4666 
z
" transform="scale(0.015625)"/>
       </defs>
       <use xlink:href="#DejaVuSans-34"/>
       <use xlink:href="#DejaVuSans-30" transform="translate(63.623047 0)"/>
      </g>
     </g>
    </g>
    <g id="ytick_4">
     <g id="line2d_11">
      <g>
       <use xlink:href="#m1024b6f7f4" x="42.765865" y="204.428957" style="stroke: #000000; stroke-width: 0.8"/>
      </g>
     </g>
     <g id="text_12">
      <!-- 60 -->
      <g transform="translate(23.040865 208.228176) scale(0.1 -0.1)">
       <defs>
        <path id="DejaVuSans-36" d="M 2113 2584 
Q 1688 2584 1439 2293 
Q 1191 2003 1191 1497 
Q 1191 994 1439 701 
Q 1688 409 2113 409 
Q 2538 409 2786 701 
Q 3034 994 3034 1497 
Q 3034 2003 2786 2293 
Q 2538 2584 2113 2584 
z
M 3366 4563 
L 3366 3988 
Q 3128 4100 2886 4159 
Q 2644 4219 2406 4219 
Q 1781 4219 1451 3797 
Q 1122 3375 1075 2522 
Q 1259 2794 1537 2939 
Q 1816 3084 2150 3084 
Q 2853 3084 3261 2657 
Q 3669 2231 3669 1497 
Q 3669 778 3244 343 
Q 2819 -91 2113 -91 
Q 1303 -91 875 529 
Q 447 1150 447 2328 
Q 447 3434 972 4092 
Q 1497 4750 2381 4750 
Q 2619 4750 2861 4703 
Q 3103 4656 3366 4563 
z
" transform="scale(0.015625)"/>
       </defs>
       <use xlink:href="#DejaVuSans-36"/>
       <use xlink:href="#DejaVuSans-30" transform="translate(63.623047 0)"/>
      </g>
     </g>
    </g>
    <g id="ytick_5">
     <g id="line2d_12">
      <g>
       <use xlink:href="#m1024b6f7f4" x="42.765865" y="167.490773" style="stroke: #000000; stroke-width: 0.8"/>
      </g>
     </g>
     <g id="text_13">
      <!-- 80 -->
      <g transform="translate(23.040865 171.289992) scale(0.1 -0.1)">
       <defs>
        <path id="DejaVuSans-38" d="M 2034 2216 
Q 1584 2216 1326 1975 
Q 1069 1734 1069 1313 
Q 1069 891 1326 650 
Q 1584 409 2034 409 
Q 2484 409 2743 651 
Q 3003 894 3003 1313 
Q 3003 1734 2745 1975 
Q 2488 2216 2034 2216 
z
M 1403 2484 
Q 997 2584 770 2862 
Q 544 3141 544 3541 
Q 544 4100 942 4425 
Q 1341 4750 2034 4750 
Q 2731 4750 3128 4425 
Q 3525 4100 3525 3541 
Q 3525 3141 3298 2862 
Q 3072 2584 2669 2484 
Q 3125 2378 3379 2068 
Q 3634 1759 3634 1313 
Q 3634 634 3220 271 
Q 2806 -91 2034 -91 
Q 1263 -91 848 271 
Q 434 634 434 1313 
Q 434 1759 690 2068 
Q 947 2378 1403 2484 
z
M 1172 3481 
Q 1172 3119 1398 2916 
Q 1625 2713 2034 2713 
Q 2441 2713 2670 2916 
Q 2900 3119 2900 3481 
Q 2900 3844 2670 4047 
Q 2441 4250 2034 4250 
Q 1625 4250 1398 4047 
Q 1172 3844 1172 3481 
z
" transform="scale(0.015625)"/>
       </defs>
       <use xlink:href="#DejaVuSans-38"/>
       <use xlink:href="#DejaVuSans-30" transform="translate(63.623047 0)"/>
      </g>
     </g>
    </g>
    <g id="ytick_6">
     <g id="line2d_13">
      <g>
       <use xlink:href="#m1024b6f7f4" x="42.765865" y="130.552589" style="stroke: #000000; stroke-width: 0.8"/>
      </g>
     </g>
     <g id="text_14">
      <!-- 100 -->
      <g transform="translate(16.678365 134.351808) scale(0.1 -0.1)">
       <defs>
        <path id="DejaVuSans-31" d="M 794 531 
L 1825 531 
L 1825 4091 
L 703 3866 
L 703 4441 
L 1819 4666 
L 2450 4666 
L 2450 531 
L 3481 531 
L 3481 0 
L 794 0 
L 794 531 
z
" transform="scale(0.015625)"/>
       </defs>
       <use xlink:href="#DejaVuSans-31"/>
       <use xlink:href="#DejaVuSans-30" transform="translate(63.623047 0)"/>
       <use xlink:href="#DejaVuSans-30" transform="translate(127.246094 0)"/>
      </g>
     </g>
    </g>
    <g id="ytick_7">
     <g id="line2d_14">
      <g>
       <use xlink:href="#m1024b6f7f4" x="42.765865" y="93.614405" style="stroke: #000000; stroke-width: 0.8"/>
      </g>
     </g>
     <g id="text_15">
      <!-- 120 -->
      <g transform="translate(16.678365 97.413623) scale(0.1 -0.1)">
       <use xlink:href="#DejaVuSans-31"/>
       <use xlink:href="#DejaVuSans-32" transform="translate(63.623047 0)"/>
       <use xlink:href="#DejaVuSans-30" transform="translate(127.246094 0)"/>
      </g>
     </g>
    </g>
    <g id="ytick_8">
     <g id="line2d_15">
      <g>
       <use xlink:href="#m1024b6f7f4" x="42.765865" y="56.67622" style="stroke: #000000; stroke-width: 0.8"/>
      </g>
     </g>
     <g id="text_16">
      <!-- 140 -->
      <g transform="translate(16.678365 60.475439) scale(0.1 -0.1)">
       <use xlink:href="#DejaVuSans-31"/>
       <use xlink:href="#DejaVuSans-34" transform="translate(63.623047 0)"/>
       <use xlink:href="#DejaVuSans-30" transform="translate(127.246094 0)"/>
      </g>
     </g>
    </g>
    <g id="ytick_9">
     <g id="line2d_16">
      <g>
       <use xlink:href="#m1024b6f7f4" x="42.765865" y="19.738036" style="stroke: #000000; stroke-width: 0.8"/>
      </g>
     </g>
     <g id="text_17">
      <!-- 160 -->
      <g transform="translate(16.678365 23.537255) scale(0.1 -0.1)">
       <use xlink:href="#DejaVuSans-31"/>
       <use xlink:href="#DejaVuSans-36" transform="translate(63.623047 0)"/>
       <use xlink:href="#DejaVuSans-30" transform="translate(127.246094 0)"/>
      </g>
     </g>
    </g>
    <g id="text_18">
     <!-- Mean runtime (ms) -->
     <g transform="translate(10.598677 214.548125) rotate(-90) scale(0.1 -0.1)">
      <defs>
       <path id="DejaVuSans-4d" d="M 628 4666 
L 1569 4666 
L 2759 1491 
L 3956 4666 
L 4897 4666 
L 4897 0 
L 4281 0 
L 4281 4097 
L 3078 897 
L 2444 897 
L 1241 4097 
L 1241 0 
L 628 0 
L 628 4666 
z
" transform="scale(0.015625)"/>
       <path id="DejaVuSans-28" d="M 1984 4856 
Q 1566 4138 1362 3434 
Q 1159 2731 1159 2009 
Q 1159 1288 1364 580 
Q 1569 -128 1984 -844 
L 1484 -844 
Q 1016 -109 783 600 
Q 550 1309 550 2009 
Q 550 2706 781 3412 
Q 1013 4119 1484 4856 
L 1984 4856 
z
" transform="scale(0.015625)"/>
       <path id="DejaVuSans-29" d="M 513 4856 
L 1013 4856 
Q 1481 4119 1714 3412 
Q 1947 2706 1947 2009 
Q 1947 1309 1714 600 
Q 1481 -109 1013 -844 
L 513 -844 
Q 928 -128 1133 580 
Q 1338 1288 1338 2009 
Q 1338 2731 1133 3434 
Q 928 4138 513 4856 
z
" transform="scale(0.015625)"/>
      </defs>
      <use xlink:href="#DejaVuSans-4d"/>
      <use xlink:href="#DejaVuSans-65" transform="translate(86.279297 0)"/>
      <use xlink:href="#DejaVuSans-61" transform="translate(147.802734 0)"/>
      <use xlink:href="#DejaVuSans-6e" transform="translate(209.082031 0)"/>
      <use xlink:href="#DejaVuSans-20" transform="translate(272.460938 0)"/>
      <use xlink:href="#DejaVuSans-72" transform="translate(304.248047 0)"/>
      <use xlink:href="#DejaVuSans-75" transform="translate(345.361328 0)"/>
      <use xlink:href="#DejaVuSans-6e" transform="translate(408.740234 0)"/>
      <use xlink:href="#DejaVuSans-74" transform="translate(472.119141 0)"/>
      <use xlink:href="#DejaVuSans-69" transform="translate(511.328125 0)"/>
      <use xlink:href="#DejaVuSans-6d" transform="translate(539.111328 0)"/>
      <use xlink:href="#DejaVuSans-65" transform="translate(636.523438 0)"/>
      <use xlink:href="#DejaVuSans-20" transform="translate(698.046875 0)"/>
      <use xlink:href="#DejaVuSans-28" transform="translate(729.833984 0)"/>
      <use xlink:href="#DejaVuSans-6d" transform="translate(768.847656 0)"/>
      <use xlink:href="#DejaVuSans-73" transform="translate(866.259766 0)"/>
      <use xlink:href="#DejaVuSans-29" transform="translate(918.359375 0)"/>
     </g>
    </g>
   </g>
   <g id="patch_3">
    <path d="M 85.849224 315.24351 
L 136.535528 315.24351 
L 136.535528 267.995536 
L 85.849224 267.995536 
z
" clip-path="url(#pd0843de1d6)" style="fill: #d34516"/>
   </g>
   <g id="patch_4">
    <path d="M 212.564985 315.24351 
L 263.25129 315.24351 
L 263.25129 268.798943 
L 212.564985 268.798943 
z
" clip-path="url(#pd0843de1d6)" style="fill: #d34516"/>
   </g>
   <g id="patch_5">
    <path d="M 339.280747 315.24351 
L 389.967051 315.24351 
L 389.967051 229.394002 
L 339.280747 229.394002 
z
" clip-path="url(#pd0843de1d6)" style="fill: #d34516"/>
   </g>
   <g id="patch_6">
    <path d="M 465.996508 315.24351 
L 516.682812 315.24351 
L 516.682812 291.672894 
L 465.996508 291.672894 
z
" clip-path="url(#pd0843de1d6)" style="fill: #d34516"/>
   </g>
   <g id="patch_7">
    <path d="M 592.712269 315.24351 
L 643.398574 315.24351 
L 643.398574 293.471183 
L 592.712269 293.471183 
z
" clip-path="url(#pd0843de1d6)" style="fill: #d34516"/>
   </g>
   <g id="patch_8">
    <path d="M 719.428031 315.24351 
L 770.114335 315.24351 
L 770.114335 285.516101 
L 719.428031 285.516101 
z
" clip-path="url(#pd0843de1d6)" style="fill: #d34516"/>
   </g>
   <g id="patch_9">
    <path d="M 846.143792 315.24351 
L 896.830097 315.24351 
L 896.830097 309.823459 
L 846.143792 309.823459 
z
" clip-path="url(#pd0843de1d6)" style="fill: #d34516"/>
   </g>
   <g id="patch_10">
    <path d="M 136.535528 315.24351 
L 187.221833 315.24351 
L 187.221833 173.733712 
L 136.535528 173.733712 
z
" clip-path="url(#pd0843de1d6)" style="fill: #1f77b4"/>
   </g>
   <g id="patch_11">
    <path d="M 263.25129 315.24351 
L 313.937594 315.24351 
L 313.937594 72.844558 
L 263.25129 72.844558 
z
" clip-path="url(#pd0843de1d6)" style="fill: #1f77b4"/>
   </g>
   <g id="patch_12">
    <path d="M 389.967051 315.24351 
L 440.653356 315.24351 
L 440.653356 117.180708 
L 389.967051 117.180708 
z
" clip-path="url(#pd0843de1d6)" style="fill: #1f77b4"/>
   </g>
   <g id="patch_13">
    <path d="M 516.682812 315.24351 
L 567.369117 315.24351 
L 567.369117 273.398827 
L 516.682812 273.398827 
z
" clip-path="url(#pd0843de1d6)" style="fill: #1f77b4"/>
   </g>
   <g id="patch_14">
    <path d="M 643.398574 315.24351 
L 694.084878 315.24351 
L 694.084878 268.48741 
L 643.398574 268.48741 
z
" clip-path="url(#pd0843de1d6)" style="fill: #1f77b4"/>
   </g>
   <g id="patch_15">
    <path d="M 770.114335 315.24351 
L 820.80064 315.24351 
L 820.80064 159.158502 
L 770.114335 159.158502 
z
" clip-path="url(#pd0843de1d6)" style="fill: #1f77b4"/>
   </g>
   <g id="patch_16">
    <path d="M 896.830097 315.24351 
L 947.516401 315.24351 
L 947.516401 306.338887 
L 896.830097 306.338887 
z
" clip-path="url(#pd0843de1d6)" style="fill: #1f77b4"/>
   </g>
   <g id="LineCollection_1">
    <path d="M 111.192376 271.49411 
L 111.192376 264.496961 
" clip-path="url(#pd0843de1d6)" style="fill: none; stroke: #000000; stroke-width: 1.5"/>
    <path d="M 237.908137 272.162481 
L 237.908137 265.435404 
" clip-path="url(#pd0843de1d6)" style="fill: none; stroke: #000000; stroke-width: 1.5"/>
    <path d="M 364.623899 231.831662 
L 364.623899 226.956341 
" clip-path="url(#pd0843de1d6)" style="fill: none; stroke: #000000; stroke-width: 1.5"/>
    <path d="M 491.33966 295.630042 
L 491.33966 287.715745 
" clip-path="url(#pd0843de1d6)" style="fill: none; stroke: #000000; stroke-width: 1.5"/>
    <path d="M 618.055422 303.053247 
L 618.055422 283.88912 
" clip-path="url(#pd0843de1d6)" style="fill: none; stroke: #000000; stroke-width: 1.5"/>
    <path d="M 744.771183 294.765985 
L 744.771183 276.266217 
" clip-path="url(#pd0843de1d6)" style="fill: none; stroke: #000000; stroke-width: 1.5"/>
    <path d="M 871.486944 312.96027 
L 871.486944 306.686649 
" clip-path="url(#pd0843de1d6)" style="fill: none; stroke: #000000; stroke-width: 1.5"/>
   </g>
   <g id="LineCollection_2">
    <path d="M 161.878681 175.928002 
L 161.878681 171.539422 
" clip-path="url(#pd0843de1d6)" style="fill: none; stroke: #000000; stroke-width: 1.5"/>
    <path d="M 288.594442 113.421935 
L 288.594442 32.267181 
" clip-path="url(#pd0843de1d6)" style="fill: none; stroke: #000000; stroke-width: 1.5"/>
    <path d="M 415.310203 138.550695 
L 415.310203 95.810722 
" clip-path="url(#pd0843de1d6)" style="fill: none; stroke: #000000; stroke-width: 1.5"/>
    <path d="M 542.025965 281.184033 
L 542.025965 265.613621 
" clip-path="url(#pd0843de1d6)" style="fill: none; stroke: #000000; stroke-width: 1.5"/>
    <path d="M 668.741726 270.158457 
L 668.741726 266.816363 
" clip-path="url(#pd0843de1d6)" style="fill: none; stroke: #000000; stroke-width: 1.5"/>
    <path d="M 795.457487 174.904924 
L 795.457487 143.412081 
" clip-path="url(#pd0843de1d6)" style="fill: none; stroke: #000000; stroke-width: 1.5"/>
    <path d="M 922.173249 310.59676 
L 922.173249 302.081014 
" clip-path="url(#pd0843de1d6)" style="fill: none; stroke: #000000; stroke-width: 1.5"/>
   </g>
   <g id="patch_17">
    <path d="M 42.765865 315.24351 
L 42.765865 18.118365 
" style="fill: none; stroke: #000000; stroke-width: 0.8; stroke-linejoin: miter; stroke-linecap: square"/>
   </g>
   <g id="patch_18">
    <path d="M 990.59976 315.24351 
L 990.59976 18.118365 
" style="fill: none; stroke: #000000; stroke-width: 0.8; stroke-linejoin: miter; stroke-linecap: square"/>
   </g>
   <g id="patch_19">
    <path d="M 42.765865 315.24351 
L 990.59976 315.24351 
" style="fill: none; stroke: #000000; stroke-width: 0.8; stroke-linejoin: miter; stroke-linecap: square"/>
   </g>
   <g id="patch_20">
    <path d="M 42.765865 18.118365 
L 990.59976 18.118365 
" style="fill: none; stroke: #000000; stroke-width: 0.8; stroke-linejoin: miter; stroke-linecap: square"/>
   </g>
   <g id="text_19">
    <!-- grep-rust vs grep -->
    <g transform="translate(464.9975 12.118365) scale(0.12 -0.12)">
     <defs>
      <path id="DejaVuSans-2d" d="M 313 2009 
L 1997 2009 
L 1997 1497 
L 313 1497 
L 313 2009 
z
" transform="scale(0.015625)"/>
      <path id="DejaVuSans-76" d="M 191 3500 
L 800 3500 
L 1894 563 
L 2988 3500 
L 3597 3500 
L 2284 0 
L 1503 0 
L 191 3500 
z
" transform="scale(0.015625)"/>
     </defs>
     <use xlink:href="#DejaVuSans-67"/>
     <use xlink:href="#DejaVuSans-72" transform="translate(63.476562 0)"/>
     <use xlink:href="#DejaVuSans-65" transform="translate(102.339844 0)"/>
     <use xlink:href="#DejaVuSans-70" transform="translate(163.863281 0)"/>
     <use xlink:href="#DejaVuSans-2d" transform="translate(227.339844 0)"/>
     <use xlink:href="#DejaVuSans-72" transform="translate(263.423828 0)"/>
     <use xlink:href="#DejaVuSans-75" transform="translate(304.537109 0)"/>
     <use xlink:href="#DejaVuSans-73" transform="translate(367.916016 0)"/>
     <use xlink:href="#DejaVuSans-74" transform="translate(420.015625 0)"/>
     <use xlink:href="#DejaVuSans-20" transform="translate(459.224609 0)"/>
     <use xlink:href="#DejaVuSans-76" transform="translate(491.011719 0)"/>
     <use xlink:href="#DejaVuSans-73" transform="translate(550.191406 0)"/>
     <use xlink:href="#DejaVuSans-20" transform="translate(602.291016 0)"/>
     <use xlink:href="#DejaVuSans-67" transform="translate(634.078125 0)"/>
     <use xlink:href="#DejaVuSans-72" transform="translate(697.554688 0)"/>
     <use xlink:href="#DejaVuSans-65" transform="translate(736.417969 0)"/>
     <use xlink:href="#DejaVuSans-70" transform="translate(797.941406 0)"/>
    </g>
   </g>
   <g id="legend_1">
    <g id="patch_21">
     <path d="M 885.79976 34.716802 
L 905.79976 34.716802 
L 905.79976 27.716802 
L 885.79976 27.716802 
z
" style="fill: #d34516"/>
    </g>
    <g id="text_20">
     <!-- grep-rust -->
     <g transform="translate(913.79976 34.716802) scale(0.1 -0.1)">
      <use xlink:href="#DejaVuSans-67"/>
      <use xlink:href="#DejaVuSans-72" transform="translate(63.476562 0)"/>
      <use xlink:href="#DejaVuSans-65" transform="translate(102.339844 0)"/>
      <use xlink:href="#DejaVuSans-70" transform="translate(163.863281 0)"/>
      <use xlink:href="#DejaVuSans-2d" transform="translate(227.339844 0)"/>
      <use xlink:href="#DejaVuSans-72" transform="translate(263.423828 0)"/>
      <use xlink:href="#DejaVuSans-75" transform="translate(304.537109 0)"/>
      <use xlink:href="#DejaVuSans-73" transform="translate(367.916016 0)"/>
      <use xlink:href="#DejaVuSans-74" transform="translate(420.015625 0)"/>
     </g>
    </g>
    <g id="patch_22">
     <path d="M 885.79976 49.394927 
L 905.79976 49.394927 
L 905.79976 42.394927 
L 885.79976 42.394927 
z
" style="fill: #1f77b4"/>
    </g>
    <g id="text_21">
     <!-- grep baseline -->
     <g transform="translate(913.79976 49.394927) scale(0.1 -0.1)">
      <use xlink:href="#DejaVuSans-67"/>
      <use xlink:href="#DejaVuSans-72" transform="translate(63.476562 0)"/>
      <use xlink:href="#DejaVuSans-65" transform="translate(102.339844 0)"/>
      <use xlink:href="#DejaVuSans-70" transform="translate(163.863281 0)"/>
      <use xlink:href="#DejaVuSans-20" transform="translate(227.339844 0)"/>
      <use xlink:href="#DejaVuSans-62" transform="translate(259.126953 0)"/>
      <use xlink:href="#DejaVuSans-61" transform="translate(322.603516 0)"/>
      <use xlink:href="#DejaVuSans-73" transform="translate(383.882812 0)"/>
      <use xlink:href="#DejaVuSans-65" transform="translate(435.982422 0)"/>
      <use xlink:href="#DejaVuSans-6c" transform="translate(497.505859 0)"/>
      <use xlink:href="#DejaVuSans-69" transform="translate(525.289062 0)"/>
      <use xlink:href="#DejaVuSans-6e" transform="translate(553.072266 0)"/>
      <use xlink:href="#DejaVuSans-65" transform="translate(616.451172 0)"/>
     </g>
    </g>
   </g>
  </g>
 </g>
 <defs>
  <clipPath id="pd0843de1d6">
   <rect x="42.765865" y="18.118365" width="947.833895" height="297.125145"/>
  </clipPath>
 </defs>
</svg>
